<svg width="231" height="20" viewBox="0 0 231 20" fill="none" xmlns="http://www.w3.org/2000/svg">
<path d="M6.35733 4.1167C6.63858 3.5542 7.43546 3.57764 7.69327 4.1167L9.24014 7.23389L12.662 7.72607C13.2714 7.81982 13.5058 8.56982 13.0605 9.01514L10.5995 11.4292L11.1855 14.8276C11.2792 15.437 10.623 15.9058 10.0839 15.6245L7.03702 14.0073L3.96671 15.6245C3.42764 15.9058 2.77139 15.437 2.86514 14.8276L3.45108 11.4292L0.990143 9.01514C0.54483 8.56982 0.779205 7.81982 1.38858 7.72607L4.83389 7.23389L6.35733 4.1167Z" fill="#008DFF"/>
<path d="M24.4573 4.1167C24.7386 3.5542 25.5355 3.57764 25.7933 4.1167L27.3401 7.23389L30.762 7.72607C31.3714 7.81982 31.6058 8.56982 31.1605 9.01514L28.6995 11.4292L29.2855 14.8276C29.3792 15.437 28.723 15.9058 28.1839 15.6245L25.137 14.0073L22.0667 15.6245C21.5276 15.9058 20.8714 15.437 20.9651 14.8276L21.5511 11.4292L19.0901 9.01514C18.6448 8.56982 18.8792 7.81982 19.4886 7.72607L22.9339 7.23389L24.4573 4.1167Z" fill="#008DFF"/>
<path d="M42.5573 4.1167C42.8386 3.5542 43.6355 3.57764 43.8933 4.1167L45.4401 7.23389L48.862 7.72607C49.4714 7.81982 49.7058 8.56982 49.2605 9.01514L46.7995 11.4292L47.3855 14.8276C47.4792 15.437 46.823 15.9058 46.2839 15.6245L43.237 14.0073L40.1667 15.6245C39.6276 15.9058 38.9714 15.437 39.0651 14.8276L39.6511 11.4292L37.1901 9.01514C36.7448 8.56982 36.9792 7.81982 37.5886 7.72607L41.0339 7.23389L42.5573 4.1167Z" fill="#008DFF"/>
<path d="M60.6573 4.1167C60.9386 3.5542 61.7355 3.57764 61.9933 4.1167L63.5401 7.23389L66.962 7.72607C67.5714 7.81982 67.8058 8.56982 67.3605 9.01514L64.8995 11.4292L65.4855 14.8276C65.5792 15.437 64.923 15.9058 64.3839 15.6245L61.337 14.0073L58.2667 15.6245C57.7276 15.9058 57.0714 15.437 57.1651 14.8276L57.7511 11.4292L55.2901 9.01514C54.8448 8.56982 55.0792 7.81982 55.6886 7.72607L59.1339 7.23389L60.6573 4.1167Z" fill="#008DFF"/>
<path d="M78.7573 4.1167C79.0386 3.5542 79.8354 3.57764 80.0933 4.1167L81.6401 7.23389L85.062 7.72607C85.6714 7.81982 85.9058 8.56982 85.4604 9.01514L82.9995 11.4292L83.5854 14.8276C83.6792 15.437 83.0229 15.9058 82.4839 15.6245L79.437 14.0073L76.3667 15.6245C75.8276 15.9058 75.1714 15.437 75.2651 14.8276L75.8511 11.4292L73.3901 9.01514C72.9448 8.56982 73.1792 7.81982 73.7886 7.72607L77.2339 7.23389L78.7573 4.1167Z" fill="#008DFF"/>
</svg>
