<svg width="19" height="17" viewBox="0 0 19 17" fill="none" xmlns="http://www.w3.org/2000/svg">
<g clip-path="url(#clip0_1_3576)">
<path d="M1.177 1.79765C1.177 1.44261 1.50322 1.15479 1.90562 1.15479H2.44796C3.37134 1.15479 3.92421 1.7025 4.24036 2.21164C4.45108 2.55102 4.60353 2.94466 4.72277 3.30103C4.75506 3.2988 4.78778 3.29765 4.82087 3.29765H16.9619C17.7684 3.29765 18.3508 3.97858 18.1297 4.6629L16.354 10.1564C16.0268 11.169 14.9782 11.8672 13.7849 11.8672H8.00637C6.80318 11.8672 5.74845 11.1576 5.43003 10.1339L4.69122 7.75865L3.4685 4.11689L3.46652 4.11051C3.31525 3.6238 3.17329 3.16912 2.96234 2.82939C2.75748 2.49948 2.59418 2.4405 2.44796 2.4405H1.90562C1.50322 2.4405 1.177 2.15268 1.177 1.79765Z" fill="white"/>
<path d="M7.49181 16.1548C8.56492 16.1548 9.4348 15.3873 9.4348 14.4405C9.4348 13.4937 8.56492 12.7262 7.49181 12.7262C6.41873 12.7262 5.54883 13.4937 5.54883 14.4405C5.54883 15.3873 6.41873 16.1548 7.49181 16.1548Z" fill="white"/>
<path d="M14.2921 16.1548C15.3652 16.1548 16.2351 15.3873 16.2351 14.4405C16.2351 13.4937 15.3652 12.7262 14.2921 12.7262C13.219 12.7262 12.3491 13.4937 12.3491 14.4405C12.3491 15.3873 13.219 16.1548 14.2921 16.1548Z" fill="white"/>
</g>
<defs>
<clipPath id="clip0_1_3576">
<rect width="18" height="16" fill="white" transform="translate(0.677002 0.654785)"/>
</clipPath>
</defs>
</svg>
